<?xml version="1.0" encoding="utf-8" ?><svg fill="white" xmlns="http://www.w3.org/2000/svg" xmlns:xlink="http://www.w3.org/1999/xlink" width="1500" height="480" viewBox="0 0 1500 480"><path d="M450.349 80.2792C497.863 75.3844 540.364 109.911 545.336 157.443C550.307 204.974 515.871 247.557 468.374 252.611C420.764 257.676 378.082 223.122 373.099 175.477C368.115 127.833 402.722 85.1856 450.349 80.2792ZM466.904 235.669C505.121 231.439 532.683 197.026 528.482 158.786C524.282 120.546 489.907 92.9443 451.685 97.1201C413.425 101.3 385.805 135.735 390.009 174.014C394.214 212.292 428.65 239.903 466.904 235.669Z"/><path d="M1172.43 79.2155C1211.86 78.1832 1248.7 75.2412 1278.58 105.787C1294.77 122.239 1303.76 144.457 1303.57 167.546C1303.23 192.622 1293.02 212.699 1275.41 229.946C1265.56 239.191 1253.66 245.967 1240.68 249.717C1235.66 251.149 1230.51 252.1 1225.3 252.558C1217.29 253.268 1174.72 254.352 1169.5 251.252C1167.85 250.267 1167.54 249.019 1167.07 247.247C1164.46 237.293 1166.03 210.81 1166.04 199.643L1166.21 104.514C1166.27 98.682 1165.81 93.2848 1165.64 87.4993C1165.46 81.7027 1167.36 80.5463 1172.43 79.2155ZM1182.94 236.056C1214.67 236.221 1241.31 240.074 1266.19 215.502C1293.29 185.128 1294.18 143.338 1263.2 114.544C1238.34 91.432 1213.61 98.0065 1182.9 96.7489C1182.84 142.166 1181.93 190.936 1182.94 236.056Z"/><path d="M178.632 11.1546C178.662 11.0111 158.042 33.1738 155.038 37.2937C47.9996 184.125 335.347 321.843 143.164 444.82L121.876 444.834C126.3 437.651 129.266 431.747 133.023 424.152L150.839 424.172L158.037 411.829C161.95 411.285 166.178 410.255 170.065 409.396C159.591 409.702 149.112 409.826 138.634 409.768C140.474 402.229 141.907 395.764 143.276 388.132L166.784 388.182L169.56 376.37C173.944 375.791 178.424 375.006 182.798 374.294C176.124 373.336 152.18 373.856 144.178 373.893C144.623 368.472 144.236 358.893 144.159 353.154L171.117 353.124L171.176 340.468C175.918 339.873 179.267 339.303 183.932 338.267C170.391 337.759 156.11 337.947 142.497 337.942C141.054 331.736 139.098 324.131 138.16 317.967L139.121 317.18L168.157 317.186L165.484 305.011C169.514 304.311 173.53 303.53 177.53 302.669C163.065 302.926 148.233 302.816 133.738 302.871C131.288 296.145 128.959 288.927 126.634 282.119L158.544 282.035L154.153 269.608C158.065 268.613 162.559 267.873 166.565 267.121C151.565 266.57 135.564 266.843 120.478 266.873L111.409 246.222L144.56 246.168C142.685 242.179 140.803 237.695 139.006 233.633C143.589 233.016 146.113 232.518 150.583 231.334C136.813 232.09 118.588 231.593 104.487 231.615C101.584 226.258 97.8679 216.028 95.7971 210.251C106.184 210.038 117.148 210.207 127.584 210.22C125.742 206.435 122.593 202.207 124.569 198.385C127.179 196.659 131.699 196.504 134.958 196.143C121.547 195.333 104.313 195.844 90.6077 195.903C88.5721 189.049 86.7473 182.133 85.136 175.166L113.989 175.122L110.241 162.468C114.649 161.844 119.049 161.172 123.441 160.451C109.973 159.7 95.8202 159.911 82.2732 159.928C81.4144 153.401 80.9334 145.861 80.2984 139.204L105.374 139.166L103.948 127.515C107.753 126.415 112.906 125.511 117.008 124.493C105.33 125.042 93.2013 124.842 81.4824 124.816C82.5904 117.277 84.1393 111.041 85.9537 103.619L104.995 103.573L107.463 91.4241C112.123 90.8972 117.506 89.9223 122.198 89.1923C112.659 88.6296 101.455 88.8368 91.7909 88.7892C95.1294 81.3654 99.6723 74.8286 104.214 68.1157L115.865 68.1243C118.464 63.6681 120.624 60.2057 123.532 55.9233C127.698 55.3599 132.21 54.2684 136.349 53.3609C130.249 53.5484 123.571 53.3605 117.422 53.2949C133.086 36.7894 158.224 20.7967 178.632 11.1546Z"/><path d="M570.862 79.2282C609.93 77.7141 652.3 76.8883 672.267 118.278C679.931 134.256 680.988 152.614 675.209 169.367C669.485 185.603 657.47 197.408 642.117 204.698C650.19 213.271 697.294 247.861 669.576 253.167C661.04 248.835 632.773 219.326 623.414 210.866C617.029 212.519 591.195 211.971 582.933 211.95C583.029 220.199 585.183 246.491 578.749 251.346C577.05 252.643 574.894 253.186 572.784 252.847C567.954 252.081 565.344 248.152 565.213 243.474C564.854 230.69 564.981 217.887 564.978 205.096L564.982 136.742L564.997 102.11C564.999 97.2531 564.729 86.7351 565.57 82.5683C566.553 80.5598 568.732 80.0549 570.862 79.2282ZM583.001 195.007C608.459 195.213 627.125 198.297 647.699 181.046C656.978 171.731 661.894 160.488 661.905 147.257C661.912 134.091 656.655 121.47 647.307 112.204C627.27 92.178 607.561 97.7604 582.944 96.9521C582.955 129.422 582.596 162.6 583.001 195.007Z"/><path d="M181.178 76.0765C182.557 76.0685 183.936 76.117 185.311 76.2218C222.821 79.0767 264.843 103.61 289.244 131.902C318.039 164.893 332.484 208.018 329.372 251.708C326.303 293.31 305.817 336.202 274.181 363.471C267.538 369.003 262.89 372.67 255.768 377.668C259.826 359.258 259.209 348.06 259.144 329.368C279.204 310.873 292.116 278.943 294.622 251.933C297.83 217.508 287.213 183.22 265.116 156.639C243.368 130.302 212.061 113.682 178.072 110.429C177.826 95.594 177.975 90.5069 181.178 76.0765Z"/><path d="M901.231 79.0193C903.016 79.0819 905.225 79.442 906.904 80.0632C910.912 81.5463 912.492 85.2099 914.158 88.8427C931.113 125.818 946.018 164.355 960.108 202.511C964.773 215.144 971.273 229.316 973.649 242.564C973.985 244.438 973.906 246.181 973.208 247.962C972.47 249.844 971.244 251.342 969.351 252.127C967.134 253.047 964.384 253.226 962.145 252.265C956.078 249.664 944.993 215.845 941.942 207.946L907.837 207.939L866.79 207.962C861.881 220.988 856.847 236.315 850.373 248.584C845.54 257.745 831.882 252.092 835.862 241.129C855.081 188.194 878.421 136.465 896.143 83.0418C896.821 80.9986 899.397 79.9623 901.231 79.0193ZM905.64 191.195L935.437 191.182C933.438 185.992 905.6 113.811 904.203 112.622L873.592 191.157L905.64 191.195Z"/><path d="M996.089 79.078C999.035 78.9297 1002.07 80.5598 1004.11 82.5926C1018.88 97.3616 1032.57 113.894 1046.18 129.744L1126.1 223.198C1126.07 210.766 1125.48 82.6823 1125.8 81.9037C1127.51 80.0381 1130.96 79.4425 1133.52 78.7361C1137.19 79.7801 1142.25 80.6023 1142.55 85.3323C1143 92.4946 1142.79 99.7845 1142.79 106.972L1142.8 151.972L1142.8 214.96C1142.8 224.915 1142.89 235.255 1142.67 245.237C1142.62 247.316 1141.01 249.39 1139.76 251.059C1135.86 253.626 1131.42 254.02 1128.12 250.34C1087.29 204.852 1048.45 157.226 1007.76 111.639C1009.08 153.798 1007.05 196.921 1007.85 239.174C1008.1 252.291 999.839 258.578 990.263 247.133C989.727 235.741 990.109 221.883 990.106 210.198L990.098 141.568L990.081 103.732C990.072 98.306 989.746 87.3692 990.483 82.3187C991.664 80.4515 993.973 79.8852 996.089 79.078Z"/><path fill="#65CBC7" d="M220.046 1.47479C220.323 1.49594 220.762 1.82706 221.035 1.99677C208.782 14.0106 200.149 19.7915 189.502 34.9989C119.742 134.638 230.333 222.581 246.616 316.507C252.681 351.491 246.399 391.638 225.061 420.301C195.553 459.938 154.272 471.583 108.178 478.975C107.869 477.794 110.156 477.208 111.138 476.831C151.734 461.247 205.157 432.822 223.612 390.827C258.873 310.593 184.543 229.377 158.631 157.683C145.115 120.287 146.196 88.6921 163.024 52.5822C174.457 27.6537 194.57 10.7065 220.046 1.47479Z"/><path d="M1424.11 298.667C1452.03 293.44 1478.88 311.922 1483.97 339.88C1489.07 367.839 1470.48 394.616 1442.52 399.591C1414.73 404.535 1388.17 386.076 1383.1 358.295C1378.04 330.513 1396.37 303.86 1424.11 298.667ZM1435.91 387.804C1457.41 386.513 1473.75 367.94 1472.3 346.434C1470.84 324.928 1452.15 308.726 1430.67 310.345C1409.42 311.947 1393.44 330.4 1394.88 351.675C1396.32 372.95 1414.64 389.081 1435.91 387.804Z"/><path d="M1230.33 297.113C1236.35 296.982 1242.37 297.005 1248.38 297.18C1264.79 297.752 1278.77 301.607 1290.32 314.112C1299.64 324.109 1304.52 337.449 1303.87 351.105C1303.25 366.933 1296.61 378.209 1285.34 388.663C1267.35 402.169 1253.86 400.229 1232.46 400.644C1228.84 400.714 1225.46 399.595 1222.96 396.88C1221.8 394.222 1221.5 303.767 1222.78 299.247C1224.89 297.626 1227.65 297.512 1230.33 297.113ZM1279.97 376.763C1288.32 366.874 1292.26 358.787 1291.14 345.241C1290.33 335.181 1285.51 325.87 1277.77 319.4C1264.66 308.418 1250.84 309.757 1234.87 309.968C1234.88 335.655 1234.46 362.548 1234.94 388.131C1252.87 388.333 1265.38 389.551 1279.97 376.763Z"/><path d="M502.079 297.148C515.761 296.766 529.761 296.524 542.326 303.573C561.096 314.103 567.822 338.766 556.882 357.401C550.749 367.849 541.851 372.862 530.187 375.771C524.57 377.223 513.159 376.893 506.869 376.88C506.842 383.422 508.285 396.475 502.696 400.673C499.154 401.104 494.556 398.504 494.362 394.71C492.893 365.934 497.253 336.779 494.477 308.007C494.196 305.098 493.433 301.671 495.205 299.154C497.154 297.57 499.577 297.495 502.079 297.148ZM506.941 364.103C521.741 364.342 530.375 365.818 542.582 356.109C547.806 349.648 550.438 343.452 549.492 334.913C548.705 327.734 545.066 321.172 539.395 316.705C529.662 308.924 518.574 309.789 506.841 309.967C506.848 327.727 506.551 346.421 506.941 364.103Z"/><path d="M700.178 80.1021C700.738 80.0637 701.3 80.0393 701.862 80.029C708.276 79.9037 713.705 80.6233 713.806 88.6133C714.426 137.724 713.352 186.948 714.05 236.057C744.86 236.086 775.68 236.027 806.487 236.003C810.577 236.129 816.062 235.708 818.959 239.276C823.127 244.41 819.61 248.938 815.955 252.444C810.985 253.352 783.878 252.899 777.489 252.919C754.822 252.828 732.123 253.125 709.461 252.79C702.854 252.693 697.325 252.462 697.244 244.524C697.127 233.19 697.157 221.867 697.156 210.534L697.176 143.399L697.121 102.374C697.104 96.3602 696.996 90.0224 697.085 83.9947C697.115 81.9567 698.702 81.2074 700.178 80.1021Z"/><path d="M637.132 297.307C637.639 297.321 638.146 297.349 638.651 297.391C645.082 297.955 663.307 321.297 668.276 327.09L712.061 378.41L711.655 301.073C713.858 296.788 717.707 297.38 721.707 298.518C722.873 299.616 723.901 300.592 723.894 302.444C723.86 312.147 723.891 322.834 723.916 332.466L724.006 372.211C724.018 378.699 725.198 394.693 721.683 399.432C719.359 400.074 715.953 400.776 714.068 398.808C706.262 390.653 698.98 381.856 691.591 373.303L646.012 320.493L645.964 370.954C645.97 378.912 649.215 399.281 638.799 401.152C635.274 399.843 634.48 397.162 634.321 393.552C633.945 385.015 634.081 376.409 634.085 367.861L634.069 321.92C634.047 315.294 633.773 307.548 633.591 300.852C633.554 299.481 635.883 298.195 637.132 297.307Z"/><path d="M762.737 297.095C782.316 297.029 802.004 296.662 821.554 297.309C828.188 297.528 832.552 301.485 828.438 307.954C825.054 311.026 810.883 310.063 805.845 310.051L769.96 309.934C769.834 322.263 769.981 334.808 770.014 347.155C782.872 347.344 795.773 346.891 808.636 347.032C814.368 347.095 819.484 346.806 820.365 353.869C818.342 363.423 782.187 359.94 773.254 359.88C771.85 359.796 771.593 359.734 770.441 360.511C769.2 365.437 769.886 382.117 770.023 388.178C782.175 388.27 794.457 387.846 806.581 388.06C812.722 388.169 825.964 386.354 829.509 391.392C830.164 393.925 830.271 394.452 829.463 396.927C825.924 401.798 813.829 400.677 808.134 400.206C798.265 399.39 766.094 402.524 759.208 398.401C757.695 391.469 758.088 376.227 758.079 368.377L758.042 322.208C758.031 317.627 757.338 303.403 757.69 300.26C758.885 298.209 760.515 297.886 762.737 297.095Z"/><path d="M1109.12 298.331C1125.49 297.032 1120.06 305.52 1120.88 317.322C1122.34 340.616 1111.51 386.759 1147.29 387.796C1176.5 388.642 1177.18 361.708 1177.15 341.037C1177.18 332.561 1177.09 324.084 1176.88 315.61C1176.75 310.462 1175.83 303.311 1178.36 299.073C1180.36 297.745 1179.92 297.863 1182.46 297.908C1189.78 298.038 1188.96 303.897 1188.86 309.069C1188.7 325.223 1191.13 364.345 1185.39 376.93C1180.98 386.585 1172.89 394.07 1162.93 397.71C1153.05 401.37 1141.19 400.976 1131.61 396.562C1121.88 391.999 1114.37 383.738 1110.75 373.613C1106.15 360.984 1108.76 342.353 1108.13 328.726C1107.87 323.294 1107.27 302.299 1109.12 298.331Z"/><path d="M423.579 298.352C438.4 297.179 453.937 302.333 460.681 318.162C461.413 319.881 460.271 321.6 459.326 322.993C457.059 324.354 456.595 324.553 453.959 324.67C446.555 322.378 441.752 309.035 428.342 310.433C421.244 311.173 409.557 315.851 410.49 324.386C411.816 336.51 432.023 340.231 440.996 344.829C460.082 353.422 471.831 370.215 456.6 388.854C450.37 396.479 440.107 399.629 430.251 400.181C428.717 400.18 427.184 400.149 425.652 400.087C414.068 399.59 395.572 391.563 395.6 377.226C395.603 375.176 396.572 373.416 398.151 372.109C407.574 370.188 407.875 384.733 420.741 387.189C434.795 389.872 447.021 386.661 451.367 371.717C446.541 354.695 424.893 353.512 411.441 345.269C386.71 330.114 398.273 304.267 423.579 298.352Z"/><path d="M943.503 298.328C959.033 297.632 972.585 301.583 980.546 317.398C981.511 319.315 980.69 321.013 979.79 322.72C977.644 324.334 977.042 324.354 974.336 324.699C970.763 323.949 965.65 317.608 962.68 315.112C954.219 308.004 939.868 308.99 933.186 317.872C921.432 333.497 951.705 340.094 961.063 344.805C973.989 350.613 987.289 361.807 982.75 377.663C978.375 392.941 965.363 398.935 950.726 400.208C939.619 400.21 929.897 397.911 921.618 389.993C917.034 385.609 912.454 377.49 918.146 372.108C927.342 370.134 927.759 383.981 939.808 386.863C954.649 390.413 966.569 386.747 971.708 371.476C965.537 354.479 947.928 354.453 934.168 346.819C907.079 331.79 916.259 306.008 943.503 298.328Z"/><path d="M1008.48 297.07C1020.33 297.161 1069.88 294.82 1077.67 299.194C1079.57 300.259 1080.5 301.36 1081.11 303.43C1080.3 311.441 1070.34 310.022 1064.25 310.122C1058.22 310.221 1052.02 310.007 1045.97 309.93L1045.97 373.374C1045.88 380.044 1047.65 392.297 1044.19 398.112C1042.06 401.696 1034.7 400.307 1034.38 395.095C1033.8 385.635 1034.03 375.997 1034.04 366.464L1034.14 309.953C1028.44 310.008 1022.61 310.167 1016.92 310.108C1010.94 310.045 1000.67 311.333 998.704 304.254C999.912 298.209 1003.27 297.78 1008.48 297.07Z"/><path d="M590.655 298.276C591.948 298.175 593.243 298.105 594.539 298.063C599.616 297.928 601.685 299.89 601.751 304.937C602.134 334.081 601.903 363.268 601.894 392.42C601.892 396.857 601.247 397.122 598.138 400.087C595.387 400.235 589.985 399.637 589.618 396.019C588.633 386.366 590.157 376.401 590.125 366.651C590.062 347.001 590.481 327.315 589.765 307.675C589.633 304.034 588.653 301.586 590.655 298.276Z"/><path d="M1341.36 298.302C1343.8 298.151 1348.49 297.508 1350.35 299.23C1354.36 302.948 1352.88 315.92 1352.88 321.616L1352.84 358.969C1352.83 370.607 1352.94 383.221 1352.68 394.931C1352.64 396.786 1351.15 398.165 1349.92 399.739C1336.83 401.778 1339.8 383.79 1340.92 375.651C1342.4 364.788 1338.95 303.434 1341.36 298.302Z"/><path d="M1500 175.491C1497.34 191.644 1493.36 203.691 1483.69 217.14C1470.5 235.605 1450.53 248.09 1428.16 251.86C1405.17 255.719 1381.6 250.194 1362.71 236.524C1344.24 223.112 1331.79 202.965 1328.05 180.44C1324.43 157.571 1329.98 134.195 1343.51 115.406C1356.59 97.4565 1377.79 84.3391 1399.75 80.9224C1422.52 77.2225 1445.83 82.8134 1464.45 96.4439C1485.94 112.176 1496.02 132.053 1500 157.907L1500 175.491ZM1420.52 235.766C1458.8 231.955 1486.75 197.815 1482.94 159.512C1479.13 121.209 1445 93.2505 1406.72 97.0653C1368.44 100.88 1340.5 135.019 1344.31 173.318C1348.12 211.618 1382.24 239.576 1420.52 235.766Z"/><path fill="#65CBC7" d="M0 228.76C1.45157 217.93 2.29591 209.847 5.02922 199.007C14.0401 163.425 34.8272 131.945 64.0042 109.695C68.4112 106.376 72.943 103.228 77.5899 100.255C73.1873 117.798 70.784 130.57 71.0614 148.921C44.8475 177.359 32.8359 208.243 34.4309 247.023C36.1548 281.052 51.1857 313.037 76.278 336.073C93.1467 351.579 112.595 361.509 134.64 367.272C134.602 379.908 133.363 388.967 130.436 401.251C61.25 385.067 13.2971 333.971 1.87672 265.265C1.16668 260.993 0.929164 255.787 0 251.741L0 228.76Z"/></svg>